<svg id="Layer_1" data-name="Layer 1" xmlns="http://www.w3.org/2000/svg" viewBox="0 0 1024 1024"><defs><style>.cls-1{fill:#0d9488;}</style></defs><path class="cls-1" d="M844.55,460.8v71c0,14.86-6.29,28.59-16.87,36.63-14.25,10.93-32.69,12.15-48,3.23L555.19,442.18a43.85,43.85,0,0,1-21.59-37.5V148.88c0-7.78,1.48-19.15,8.65-28.85,8.48-11.45,20.72-17.83,34.53-17.83a41.62,41.62,0,0,1,21.59,5.94L662,144.86a10.65,10.65,0,0,1,5.33,9.27V302.48a86.87,86.87,0,0,0,43.36,75l128.42,74A10.85,10.85,0,0,1,844.55,460.8Z"/><path class="cls-1" d="M779.6,645.18c.52,13.81-10.84,32.69-24.21,40.39l-60.94,35.14a10.75,10.75,0,0,1-10.75,0L555.19,646.58a87.08,87.08,0,0,0-86.64,0L340.22,720.71a10.77,10.77,0,0,1-10.76,0l-60.93-35.14c-13.38-7.7-24.74-26.58-24.22-40.39a42.65,42.65,0,0,1,21.6-35.85L490.32,479.69c12.76-7.52,30.34-7.52,43.19,0L758,609.33A42.64,42.64,0,0,1,779.6,645.18Z"/><path class="cls-1" d="M490.23,148.44V404.68a43.53,43.53,0,0,1-21.68,37.5L244.14,571.65c-15.21,8.92-33.57,7.7-47.91-3.23-10.49-8-16.87-21.77-16.87-36.63v-71a10.87,10.87,0,0,1,5.42-9.35l128.33-74a86.75,86.75,0,0,0,43.28-75V154.13a10.73,10.73,0,0,1,5.42-9.27l63.64-36.72A42.1,42.1,0,0,1,447,102.2a41.67,41.67,0,0,1,27.19,9.88C484.2,120.29,490.23,133.93,490.23,148.44Z"/><path class="cls-1" d="M779.69,851.23A42.72,42.72,0,0,1,758,888.65L533.51,1018.3a43.76,43.76,0,0,1-43.19,0L265.91,888.65a42.65,42.65,0,0,1-21.6-37.42,43.09,43.09,0,0,1,21.6-37.5L490.32,684.25a42.78,42.78,0,0,1,43.19,0L758,813.73A43.16,43.16,0,0,1,779.69,851.23Z"/><path class="cls-1" d="M1021.76,172.83V432a43.28,43.28,0,0,1-64.87,37.42L732.31,339.72a42.9,42.9,0,0,1-21.6-37.24V43.19A43.16,43.16,0,0,1,754,0a42.47,42.47,0,0,1,21.59,5.77l224.5,129.65A43.3,43.3,0,0,1,1021.76,172.83Z"/><path class="cls-1" d="M313,43.19V302.48a42.9,42.9,0,0,1-21.6,37.24L67,469.37a42.86,42.86,0,0,1-43.18,0A42.63,42.63,0,0,1,2.24,432V172.83a43,43,0,0,1,21.6-37.41L248.16,5.77A44,44,0,0,1,269.84,0,43.16,43.16,0,0,1,313,43.19Z"/></svg>