<svg id="Layer_1" data-name="Layer 1" xmlns="http://www.w3.org/2000/svg" viewBox="0 0 1600 308.9"><defs><style>.cls-1{fill:#0d9488;}.cls-2{fill:#0b141e;}</style></defs><path class="cls-1" d="M254.09,139v21.41A13.83,13.83,0,0,1,249,171.47a12.82,12.82,0,0,1-14.47,1L166.8,133.39a13.22,13.22,0,0,1-6.51-11.31V44.91a14.68,14.68,0,0,1,2.61-8.7,12.74,12.74,0,0,1,10.42-5.38,12.6,12.6,0,0,1,6.51,1.79L199,43.7a3.21,3.21,0,0,1,1.61,2.79V91.25a26.18,26.18,0,0,0,13.08,22.62l38.74,22.31A3.29,3.29,0,0,1,254.09,139Z"/><path class="cls-1" d="M234.5,194.62c.16,4.17-3.27,9.87-7.31,12.19l-18.38,10.6a3.23,3.23,0,0,1-3.24,0L166.8,195.05a26.27,26.27,0,0,0-26.13,0L102,217.41a3.23,3.23,0,0,1-3.24,0l-18.38-10.6c-4-2.32-7.46-8-7.31-12.19a12.87,12.87,0,0,1,6.52-10.81l67.69-39.11a13.32,13.32,0,0,1,13,0L228,183.81A12.88,12.88,0,0,1,234.5,194.62Z"/><path class="cls-1" d="M147.21,44.78v77.3a13.14,13.14,0,0,1-6.54,11.31L73,172.45a12.79,12.79,0,0,1-14.45-1,13.92,13.92,0,0,1-5.09-11.05V139a3.29,3.29,0,0,1,1.63-2.83l38.72-22.31a26.17,26.17,0,0,0,13-22.62V46.49a3.24,3.24,0,0,1,1.64-2.79l19.2-11.08a12.72,12.72,0,0,1,14.69,1.19A14.2,14.2,0,0,1,147.21,44.78Z"/><path class="cls-1" d="M234.53,256.78A12.91,12.91,0,0,1,228,268.07l-67.73,39.11a13.22,13.22,0,0,1-13,0L79.54,268.07a13.05,13.05,0,0,1,0-22.6l67.69-39.06a13.11,13.11,0,0,1,6.52-1.76,13,13,0,0,1,6.51,1.76L228,245.47A13,13,0,0,1,234.53,256.78Z"/><path class="cls-1" d="M307.55,52.14V130.3A13.06,13.06,0,0,1,288,141.59l-67.75-39.11a12.93,12.93,0,0,1-6.51-11.23V13A13.06,13.06,0,0,1,233.29,1.74L301,40.85A13.07,13.07,0,0,1,307.55,52.14Z"/><path class="cls-1" d="M93.75,13V91.25a12.93,12.93,0,0,1-6.51,11.23l-67.7,39.11a12.92,12.92,0,0,1-13,0A12.88,12.88,0,0,1,0,130.3V52.14A13,13,0,0,1,6.51,40.85L74.18,1.74A13.33,13.33,0,0,1,80.72,0a13,13,0,0,1,13,13Z"/><path class="cls-2" d="M470.35,263.21q-30.19,0-51.89-13T385,212.79q-11.73-24.33-11.72-58T385,96.55q11.73-24.47,33.42-37.67t51.89-13.19q30.48,0,52.33,13.19t33.41,37.67q11.58,24.48,11.59,58.19t-11.59,58q-11.58,24.33-33.41,37.37T470.35,263.21Zm0-29q20.22,0,34.74-9.39t22.13-27.11q7.62-17.73,7.62-42.95t-7.62-43.09q-7.62-17.88-22.13-27.41t-34.74-9.52q-19.94,0-34.3,9.52t-22.13,27.41q-7.77,17.88-7.77,43.09t7.77,42.95q7.75,17.75,22.13,27.11T470.35,234.19Z"/><path class="cls-2" d="M587.32,258.52l56.58-79.74-54.24-76.22h34.59l38.41,56,37.23-56h35.47l-53.65,76.81,56,79.15H703.11L663,199,622.5,258.52Z"/><path class="cls-2" d="M758.22,80V48.92h32.25V80Zm.59,178.53v-156h31.07v156Z"/><path class="cls-2" d="M886.33,262q-19.94,0-34.74-10T829,223.78q-7.77-18.32-7.77-43.24t7.91-43.24Q837.08,119,851.74,109t34.59-10q16.11,0,28.73,6.74a45.25,45.25,0,0,1,19.05,18.76V50.38h31.08V258.52h-29l-.88-23.45a46.41,46.41,0,0,1-19.49,19.78A60.05,60.05,0,0,1,886.33,262Zm8.21-27q12.6,0,21.4-6.45t13.48-18.77q4.7-12.3,4.69-29.31,0-17.59-4.69-29.76t-13.48-18.46q-8.81-6.3-21.4-6.31-18.76,0-29.91,14.52t-11.13,40q0,25.22,11.13,39.87T894.54,235.07Z"/><path class="cls-2" d="M1076,258.52,994.2,50.38h10.26l76.81,198.17,76.8-198.17h10.27l-81.79,208.14Z"/><path class="cls-2" d="M1220.69,262q-22.28,0-36-11.43t-13.78-30.19q0-17.59,13.34-28.29t33.85-14.51l62.44-11.73q0-30.48-11.57-44t-35.33-13.48q-21.4,0-34.3,10.84t-16.12,30.78l-9.67-.88q4.1-23.74,19.49-36.64t40.6-12.9q27,0,41.33,15.54T1289.29,163V229.2q0,12.62,3.66,16.57t11,3.95h1.76v8.8a9.45,9.45,0,0,1-2.2.29h-2.2A22.12,22.12,0,0,1,1290,256q-4.83-2.77-7.47-10.55t-2.64-22.72h1.76a57.77,57.77,0,0,1-12.31,19.35,62.36,62.36,0,0,1-21,14.51A68.59,68.59,0,0,1,1220.69,262Zm.59-8.79q17,0,30.34-7.18a55.67,55.67,0,0,0,21.11-19.5,51.11,51.11,0,0,0,7.76-27.85V174.38l-59.8,11.44q-18.46,3.51-29.46,11.72t-11,22.28q0,16.13,10.7,24.77T1221.28,253.24Z"/><path class="cls-2" d="M1382.3,262q-23.16,0-37.08-15.68t-13.92-43.24v-100h8.79V199.3q0,26.69,11.58,40.31t33,13.63q23.44,0,37.23-15.54t13.78-41.62V103.15h8.79V258.52h-7.62L1436,216h1.47q-2.36,21.7-17,33.86T1382.3,262Z"/><path class="cls-2" d="M1508.83,258.52q-12,0-18.18-5.87t-6.15-17.58V50.38h8.79V235.07q0,7.32,4.11,11.28t12.31,4h9.38v8.21Z"/><path class="cls-2" d="M1526.13,111.36v-8.21H1600v8.21ZM1583,258.52q-14.94,0-22.27-7.48t-7.33-21.84V66.8h8.79V228.62q0,11.73,5.42,16.71t16,5H1600v8.21Z"/></svg>