<?xml version="1.0" encoding="UTF-8"?>
<svg id="Layer_1" xmlns="http://www.w3.org/2000/svg" version="1.1" viewBox="0 0 1600 308.89">
  <!-- Generator: Adobe Illustrator 30.6.0, SVG Export Plug-In . SVG Version: 2.1.4 Build 109)  -->
  <defs>
    <style>
      .st0 {
        fill: #fff;
      }

      .st1 {
        fill: #0d9488;
      }
    </style>
  </defs>
  <path class="st1" d="M254.09,139v21.41c.1,4.28-1.77,8.36-5.09,11.06-4.15,3.29-9.9,3.69-14.47,1l-67.73-39.08c-4.01-2.36-6.48-6.66-6.51-11.31V44.91c-.07-3.1.84-6.15,2.61-8.7,2.39-3.38,6.28-5.39,10.42-5.38,2.29,0,4.54.61,6.51,1.79l19.17,11.08c1,.57,1.61,1.64,1.61,2.79v44.76c.02,9.33,5,17.95,13.08,22.62l38.74,22.31c1.01.58,1.65,1.65,1.66,2.82Z"/>
  <path class="st1" d="M234.5,194.62c.16,4.17-3.27,9.87-7.31,12.19l-18.38,10.6c-1,.58-2.24.58-3.24,0l-38.77-22.36c-8.09-4.64-18.04-4.64-26.13,0l-38.67,22.36c-1,.58-2.24.58-3.24,0l-18.38-10.6c-4-2.32-7.46-8-7.31-12.19.14-4.49,2.61-8.59,6.52-10.81l67.69-39.11c4.04-2.26,8.96-2.26,13,0l67.72,39.11c3.9,2.22,6.37,6.32,6.5,10.81Z"/>
  <path class="st1" d="M147.21,44.78v77.3c-.02,4.66-2.51,8.97-6.54,11.31l-67.67,39.06c-4.56,2.69-10.3,2.29-14.45-1-3.3-2.71-5.18-6.78-5.09-11.05v-21.4c0-1.17.62-2.24,1.63-2.83l38.72-22.31c8.05-4.69,13-13.3,13-22.62v-44.75c0-1.16.63-2.22,1.64-2.79l19.2-11.08c4.65-2.77,10.55-2.29,14.69,1.19,3.16,2.76,4.95,6.77,4.87,10.97Z"/>
  <path class="st1" d="M234.53,256.78c.02,4.67-2.47,8.98-6.53,11.29l-67.73,39.11c-4.03,2.28-8.97,2.28-13,0l-67.73-39.11c-6.24-3.61-8.38-11.59-4.77-17.83,1.14-1.98,2.79-3.63,4.77-4.77l67.69-39.06c1.98-1.15,4.23-1.75,6.52-1.76,2.29,0,4.53.61,6.51,1.76l67.74,39.06c4.05,2.32,6.54,6.64,6.53,11.31Z"/>
  <path class="st1" d="M307.55,52.14v78.16c-.02,7.21-5.89,13.04-13.1,13.02-2.26,0-4.48-.6-6.45-1.73l-67.75-39.11c-4.03-2.3-6.51-6.59-6.51-11.23V13c.04-7.21,5.92-13.03,13.13-12.99,2.25.01,4.46.61,6.42,1.73l67.71,39.11c4.04,2.33,6.54,6.63,6.55,11.29Z"/>
  <path class="st1" d="M93.75,13v78.25c0,4.64-2.48,8.93-6.51,11.23l-67.7,39.11c-4.02,2.34-8.98,2.34-13,0C2.47,139.29-.03,134.97,0,130.3V52.14c0-4.66,2.47-8.96,6.51-11.29L74.18,1.74c1.99-1.13,4.25-1.73,6.54-1.74,7.18,0,13,5.82,13,13h.03Z"/>
  <path class="st0" d="M470.35,263.21c-20.13,0-37.42-4.33-51.89-13-14.47-8.67-25.62-21.14-33.46-37.42-7.82-16.22-11.73-35.55-11.72-58,0-22.45,3.91-41.86,11.72-58.24,7.82-16.31,18.96-28.87,33.42-37.67,14.46-8.8,31.76-13.2,51.89-13.19,20.32,0,37.76,4.4,52.33,13.19,14.57,8.79,25.7,21.35,33.41,37.67,7.72,16.32,11.58,35.72,11.59,58.19,0,22.47-3.86,41.81-11.59,58-7.72,16.22-18.86,28.68-33.41,37.37-14.55,8.69-31.98,13.06-52.29,13.1ZM470.35,234.21c13.48,0,25.06-3.13,34.74-9.39,9.68-6.26,17.06-15.3,22.13-27.11,5.08-11.82,7.62-26.14,7.62-42.95s-2.54-31.18-7.62-43.09c-5.08-11.92-12.46-21.06-22.13-27.41s-21.25-9.53-34.74-9.52c-13.29,0-24.73,3.17-34.3,9.52-9.57,6.35-16.95,15.48-22.13,27.41-5.18,11.92-7.77,26.28-7.77,43.09s2.59,31.12,7.77,42.95c5.17,11.83,12.54,20.87,22.13,27.11,9.59,6.24,21.02,9.36,34.3,9.37v.02Z"/>
  <path class="st0" d="M587.32,258.52l56.58-79.74-54.24-76.22h34.59l38.41,56,37.23-56h35.47l-53.65,76.81,56,79.15h-34.6l-40.11-59.52-40.5,59.52h-35.18Z"/>
  <path class="st0" d="M758.22,80v-31.08h32.25v31.08h-32.25ZM758.81,258.53V102.53h31.07v156h-31.07Z"/>
  <path class="st0" d="M886.33,262c-13.29,0-24.87-3.33-34.74-10-9.87-6.67-17.4-16.07-22.59-28.22-5.18-12.21-7.77-26.63-7.77-43.24s2.64-31.03,7.91-43.24c5.29-12.2,12.83-21.63,22.6-28.3s21.3-10,34.59-10c10.74,0,20.32,2.25,28.73,6.74,8.09,4.19,14.73,10.73,19.05,18.76V50.38h31.08v208.14h-29l-.88-23.45c-4.33,8.43-11.13,15.33-19.49,19.78-9.06,4.87-19.21,7.33-29.49,7.15ZM894.54,235c8.4,0,15.53-2.15,21.4-6.45,5.87-4.3,10.36-10.56,13.48-18.77,3.13-8.2,4.7-17.97,4.69-29.31,0-11.73-1.56-21.65-4.69-29.76-3.13-8.11-7.62-14.27-13.48-18.46-5.87-4.2-13.01-6.3-21.4-6.31-12.51,0-22.48,4.84-29.91,14.52-7.43,9.68-11.14,23.01-11.13,40,0,16.81,3.71,30.1,11.13,39.87,7.42,9.77,17.39,14.68,29.91,14.74v-.07Z"/>
  <path class="st0" d="M1076,258.52l-81.8-208.14h10.26l76.81,198.17,76.8-198.17h10.27l-81.79,208.14h-10.55Z"/>
  <path class="st0" d="M1220.69,262c-14.85,0-26.85-3.81-36-11.43s-13.74-17.68-13.78-30.19c0-11.73,4.45-21.16,13.34-28.29,8.89-7.13,20.18-11.97,33.85-14.51l62.44-11.73c0-20.32-3.86-34.99-11.57-44-7.71-9.01-19.49-13.51-35.33-13.48-14.27,0-25.7,3.61-34.3,10.84-8.6,7.23-13.97,17.49-16.12,30.78l-9.67-.88c2.73-15.83,9.23-28.04,19.49-36.64s23.79-12.9,40.6-12.9c18,0,31.78,5.18,41.33,15.54,9.55,10.36,14.33,26.32,14.32,47.89v66.2c0,8.41,1.22,13.94,3.66,16.57,2.44,2.63,6.11,3.95,11,3.95h1.76v8.8c-.72.18-1.46.28-2.2.29h-2.2c-3.95.09-7.86-.88-11.31-2.81-3.22-1.85-5.71-5.36-7.47-10.55-1.76-5.19-2.64-12.76-2.64-22.72h1.76c-2.77,7.21-6.95,13.79-12.31,19.35-5.92,6.23-13.07,11.17-21,14.51-8.74,3.7-18.16,5.54-27.65,5.41ZM1221.28,253.21c11.33,0,21.45-2.39,30.34-7.18,8.62-4.54,15.9-11.26,21.11-19.5,5.21-8.34,7.91-18.01,7.76-27.85v-24.3l-59.8,11.44c-12.31,2.34-22.13,6.25-29.46,11.72-7.33,5.47-11,12.9-11,22.28,0,10.75,3.57,19.01,10.7,24.77,7.13,5.76,17.25,8.64,30.35,8.65v-.03Z"/>
  <path class="st0" d="M1382.3,262c-15.44,0-27.8-5.23-37.08-15.68-9.28-10.45-13.92-24.87-13.92-43.24v-100h8.79v96.22c0,17.79,3.86,31.23,11.58,40.31,7.72,9.08,18.72,13.62,33,13.63,15.63,0,28.04-5.18,37.23-15.54s13.79-24.23,13.78-41.62v-92.93h8.79v155.37h-7.62l-.85-42.52h1.47c-1.57,14.47-7.24,25.75-17,33.86-9.76,8.11-22.48,12.15-38.17,12.14Z"/>
  <path class="st0" d="M1508.83,258.52c-8,0-14.06-1.96-18.18-5.87-4.12-3.91-6.17-9.77-6.15-17.58V50.38h8.79v184.69c0,4.88,1.37,8.64,4.11,11.28,2.74,2.64,6.84,3.97,12.31,4h9.38v8.21l-10.26-.04Z"/>
  <path class="st0" d="M1526.13,111.36v-8.21h73.87v8.21h-73.87ZM1583,258.52c-9.96,0-17.38-2.49-22.27-7.48-4.89-4.99-7.33-12.27-7.33-21.84V66.8h8.79v161.82c0,7.82,1.81,13.39,5.42,16.71s8.95,4.99,16,5h16.39v8.21l-17-.02Z"/>
</svg>